<?xml version="1.0" encoding="utf-8"?>
<!-- Generator: Adobe Illustrator 24.1.2, SVG Export Plug-In . SVG Version: 6.00 Build 0)  -->
<svg version="1.1" id="图层_1" xmlns="http://www.w3.org/2000/svg" xmlns:xlink="http://www.w3.org/1999/xlink" x="0px" y="0px"
	 viewBox="0 0 690 60" style="enable-background:new 0 0 690 60;" xml:space="preserve">
<style type="text/css">
	.st0{fill:#F5F5FA;}
</style>
<path class="st0" d="M690,10.6c-8.6,0-18.8,2.3-26.8,9.8c-2.2-2.8-5.7-4.3-9.2-3.9c-7.8-9-20-12-29.7-7.9
	c-10.2,4.3-13.4,14.7-13.8,16.2c-2.1-6.8-6.8-12.6-13-16.2c-11.2-6.2-22.3-2.2-23.9-1.6c-1.1-0.9-14.6-10.8-31-5.4
	c-13.9,4.6-19.3,16.8-20.1,18.7c-8.7-5.8-20.1-5.2-27.6,1.2c-6.7,5.9-9.4,15.2-6.7,23.7c-0.3-0.2-5.2-3.3-10.5-0.8
	c-3,1.5-5.1,4.2-5.9,7.5c-0.2-0.3-4.1-5.2-10-4.6c-2.8,0.3-5.3,1.7-7.1,3.7c-0.7-0.9-6.6-8.1-16.8-7.9c-10.4,0.2-16.2,7.9-16.7,8.7
	c-0.7-3-2.7-5.6-5.4-7.1c-3.7-1.8-8.1-1.3-11.3,1.2c-1.7-6-5.6-11.1-10.9-14.2c-11.4-6.7-26.2-3-33,8.4c-2.8-3-6.5-5.2-10.5-6.2
	c-5.5-1.4-11.3-0.6-16.3,2.1c-7.9-9.2-20.4-13.3-32.2-10.4c-15.4,3.9-21.2,18.1-21.8,19.5c-3.6-0.8-7.3-0.8-10.9,0
	c-5.1,1.2-9.6,4-13,7.9C255.4,47.8,252,43,247,41c-7.2-3-15.5,0.5-18.5,7.6c-2.6-5.5-6.8-10-12.1-12.9c-6.4-3.4-13.9-4.3-20.9-2.5
	c-0.9-1.7-9.4-17.5-28.5-20.8c-18.8-3.2-32,8.6-33.5,10c-0.3-0.4-0.7-0.8-1.1-1.2c-6.6-6.4-17.2-6.2-23.6,0.3
	c-3.1-3-6.8-5.3-10.9-6.7c-12.7-4-23.8,3-25.5,4.2C69.4,14.7,65,11.5,60,10c-11.7-3.4-24,3.3-27.5,14.9c-4.1-4-8.8-7.3-14.4-9.9
	C12.4,12.3,5.3,10.6,0,10.6V60h690V10.6z"/>
</svg>
